<?xml version="1.0" standalone="no"?>
<!DOCTYPE svg PUBLIC "-//W3C//DTD SVG 20010904//EN"
 "http://www.w3.org/TR/2001/REC-SVG-20010904/DTD/svg10.dtd">
<svg version="1.0" xmlns="http://www.w3.org/2000/svg"
 width="3862.000000pt" height="1184.000000pt" viewBox="0 0 3862.000000 1184.000000"
 preserveAspectRatio="xMidYMid meet">

<g transform="translate(0.000000,1184.000000) scale(0.100000,-0.100000)"
fill="#000000" stroke="none">
<path d="M0 5920 l0 -5920 19310 0 19310 0 0 5920 0 5920 -19310 0 -19310 0 0
-5920z m10870 3446 c0 -9 -1971 -2941 -1978 -2944 -8 -2 -722 931 -722 943 0
3 128 197 285 430 157 233 285 426 285 429 0 3 -381 5 -847 4 l-848 -3 -87
-130 c-48 -71 -87 -136 -88 -143 0 -7 348 -518 773 -1134 424 -617 773 -1125
775 -1129 2 -4 -275 -428 -614 -943 l-618 -936 -2148 0 c-1181 0 -2148 2
-2148 4 0 7 2040 3109 2054 3124 11 11 78 -76 373 -484 l360 -498 -328 -493
c-181 -271 -329 -497 -329 -503 0 -7 251 -10 744 -10 l744 0 236 324 c130 179
236 327 236 330 0 3 -347 509 -770 1126 l-771 1121 348 527 c191 290 416 632
500 760 l153 232 2215 0 c1218 0 2215 -2 2215 -4z m13888 -11 c2 -2 -835
-1252 -1860 -2779 l-1863 -2776 -507 0 -508 0 0 22 c0 46 129 3057 135 3141 3
51 2 86 -3 83 -5 -3 -497 -734 -1093 -1625 l-1084 -1620 -430 1 c-236 0 -542
4 -678 7 l-248 6 1853 2774 1853 2774 449 -6 c247 -4 451 -9 455 -12 3 -3 -19
-758 -48 -1678 -29 -920 -51 -1686 -50 -1704 4 -28 131 159 1149 1688 l1145
1719 665 -6 c366 -4 666 -8 668 -9z m-12258 -14 l316 -6 -639 -929 c-351 -510
-637 -930 -635 -931 2 -1 344 140 760 315 l757 318 597 8 c473 5 595 4 589 -5
-6 -11 -611 -809 -620 -819 -2 -2 -520 -252 -1152 -556 -631 -304 -1172 -565
-1201 -580 -46 -23 -53 -31 -48 -49 6 -23 446 -2250 449 -2277 2 -13 -58 -17
-443 -27 -245 -6 -519 -11 -610 -12 l-166 -1 -108 573 c-60 314 -124 654 -143
754 l-35 183 -55 -38 c-50 -35 -81 -79 -500 -727 -245 -379 -452 -696 -459
-704 -11 -13 -102 -14 -611 -12 -329 2 -632 6 -674 10 l-76 6 1829 2758 1830
2757 366 -1 c202 -1 509 -4 682 -8z m2614 -2853 l-1134 -1643 637 -3 c597 -2
638 -1 654 15 9 10 526 750 1148 1646 l1133 1627 621 -1 c342 -1 645 -4 673
-7 l51 -7 -2006 -2993 -2006 -2993 -5330 7 c-2931 4 -5869 9 -6527 13 l-1198
6 388 562 387 562 5800 1 5801 0 179 265 c98 146 176 267 174 269 -2 2 -591 9
-1309 16 -718 7 -1307 14 -1309 16 -2 2 653 964 1455 2138 l1459 2136 390 2
c215 2 528 4 697 6 l307 2 -1135 -1642z m13219 1584 c-10 -16 -416 -624 -903
-1351 l-885 -1323 -250 6 c-137 3 -673 9 -1190 12 l-940 6 -142 -220 c-79
-121 -143 -225 -143 -231 0 -8 366 -12 1215 -13 l1215 -3 -406 -572 -406 -573
-1884 0 c-1792 0 -1884 1 -1875 18 10 18 1015 1550 2155 3285 l650 987 1904 0
1904 0 -19 -28z m4105 6 c-8 -13 -349 -551 -758 -1195 -409 -645 -746 -1173
-749 -1173 -6 1 -713 960 -740 1004 -13 21 -10 28 26 82 22 32 52 78 67 102
l26 42 -390 0 c-267 0 -390 -3 -390 -11 0 -5 242 -362 538 -792 296 -430 542
-787 545 -794 5 -7 -194 -317 -484 -757 l-492 -746 -1718 0 -1719 0 47 73
c1282 2001 1638 2554 1648 2565 9 10 82 -96 350 -510 186 -288 338 -527 338
-533 0 -5 -59 -106 -132 -223 -72 -117 -131 -215 -131 -218 0 -2 148 -4 329
-4 l328 0 103 140 c61 85 100 147 96 156 -3 8 -242 359 -531 779 -289 421
-528 772 -531 780 -4 9 153 256 402 635 l409 620 1764 0 1763 0 -14 -22z
m4132 17 c0 -7 -1491 -2358 -1505 -2373 -10 -11 -85 85 -389 499 l-377 512 65
98 c36 54 66 101 66 104 0 3 -176 5 -391 5 -337 0 -390 -2 -386 -14 3 -8 249
-368 546 -800 298 -431 541 -788 541 -793 0 -4 -220 -341 -488 -748 l-488
-740 -1718 -3 c-1016 -1 -1716 2 -1714 7 1 5 383 601 847 1325 668 1041 847
1314 857 1304 12 -14 674 -1036 674 -1042 0 -2 -59 -100 -131 -217 -72 -118
-133 -217 -136 -221 -2 -5 145 -8 326 -8 l331 0 68 93 c37 50 84 115 105 143
l37 51 -541 787 -540 787 29 47 c32 51 716 1089 764 1160 l29 42 1759 0 c968
0 1760 -2 1760 -5z m-3460 -5395 l-380 -570 -8590 0 c-4725 0 -8590 2 -8590 5
0 3 169 259 377 570 l376 565 8594 0 8593 0 -380 -570z"/>
<path d="M24854 6788 c-70 -106 -129 -198 -131 -205 -4 -11 126 -13 679 -13
l685 0 136 205 137 205 -690 0 -691 0 -125 -192z"/>
</g>
</svg>
