<?xml version="1.0" standalone="no"?>
<!DOCTYPE svg PUBLIC "-//W3C//DTD SVG 20010904//EN"
 "http://www.w3.org/TR/2001/REC-SVG-20010904/DTD/svg10.dtd">
<svg version="1.0" xmlns="http://www.w3.org/2000/svg"
 width="4500.000000pt" height="4500.000000pt" viewBox="0 0 4500.000000 4500.000000"
 preserveAspectRatio="xMidYMid meet">

<g transform="translate(0.000000,4500.000000) scale(0.100000,-0.100000)"
fill="#000000" stroke="none">
<path d="M9537 25813 c-112 -170 -337 -511 -501 -760 l-297 -452 744 -1083
c409 -596 756 -1102 771 -1125 l27 -41 -237 -326 -237 -326 -743 0 c-493 0
-744 3 -744 10 0 6 148 232 329 503 l329 494 -360 496 c-197 273 -362 497
-366 496 -6 0 -2053 -3109 -2060 -3130 -2 -5 866 -9 2146 -9 l2149 0 617 934
c339 514 616 937 616 940 0 3 -349 511 -775 1130 -426 619 -775 1131 -774
1138 0 7 39 72 87 143 l87 130 848 3 c466 1 847 0 847 -2 0 -3 -128 -196 -285
-430 -157 -233 -285 -427 -285 -431 0 -10 712 -945 720 -945 7 0 1980 2934
1980 2945 0 3 -997 5 -2215 5 l-2216 0 -202 -307z"/>
<path d="M25580 24401 c-934 -1402 -1146 -1714 -1149 -1693 -2 15 21 782 50
1704 29 922 51 1680 48 1683 -4 3 -208 8 -455 12 l-449 6 -1853 -2773 c-1019
-1525 -1851 -2774 -1849 -2776 2 -3 307 -7 678 -10 l674 -6 680 1018 c1085
1623 1497 2236 1500 2232 2 -2 -28 -716 -66 -1588 -37 -872 -69 -1602 -69
-1622 l0 -38 508 0 508 0 1863 2776 c1025 1526 1861 2777 1859 2778 -1 2 -302
6 -668 10 l-665 6 -1145 -1719z"/>
<path d="M14351 25498 c-220 -332 -1043 -1573 -1829 -2758 l-1430 -2155 86 -7
c48 -3 353 -8 678 -10 l591 -3 456 705 c428 660 461 707 511 742 l54 37 25
-132 c14 -73 78 -412 143 -754 l118 -623 165 1 c92 1 366 6 611 12 l445 12 -3
25 c-5 34 -440 2240 -448 2265 -4 16 4 26 36 44 23 13 564 275 1203 582 l1161
558 313 413 c172 226 313 414 313 417 0 2 -268 1 -596 -3 l-596 -8 -757 -318
c-416 -174 -757 -316 -759 -315 -1 1 285 420 636 931 l639 929 -311 6 c-171 4
-478 7 -683 8 l-372 1 -400 -602z"/>
<path d="M18538 24870 l-387 -5 -1452 -2125 c-798 -1169 -1454 -2131 -1456
-2137 -4 -10 38 -13 188 -13 298 0 2424 -22 2428 -26 2 -1 -77 -122 -175 -268
l-178 -266 -5800 0 -5801 0 -388 -563 -388 -562 1198 -6 c659 -4 3597 -9 6528
-13 l5331 -7 2006 2993 2006 2993 -65 8 c-36 4 -340 6 -675 5 l-611 -3 -1142
-1640 -1142 -1640 -642 -3 c-360 -1 -640 2 -637 7 10 15 2178 3155 2223 3219
l44 62 -313 -2 c-172 -2 -487 -5 -700 -8z"/>
<path d="M27154 23803 c-1286 -1958 -2124 -3235 -2124 -3239 0 -2 849 -3 1886
-2 l1887 3 404 570 404 570 -1216 3 c-820 1 -1215 5 -1215 12 0 11 222 358
268 419 l25 34 936 -7 c515 -3 1049 -9 1186 -12 l250 -6 885 1322 c487 727
893 1335 903 1351 l19 29 -1905 0 -1904 0 -689 -1047z m2369 -278 l-138 -205
-682 0 c-376 0 -683 2 -683 5 0 7 21 40 154 243 l106 162 690 0 691 0 -138
-205z"/>
<path d="M31820 24238 c-222 -337 -404 -622 -404 -633 -1 -11 237 -366 527
-789 291 -422 531 -774 533 -781 3 -7 -41 -77 -97 -154 l-103 -141 -328 0
c-180 0 -328 2 -328 4 0 2 59 100 132 217 72 118 131 219 131 224 0 6 -152
245 -338 533 -272 421 -341 521 -351 510 -9 -10 -571 -885 -1661 -2585 l-34
-53 1719 0 1720 0 492 746 492 745 -28 42 c-15 23 -261 381 -546 794 -285 414
-518 757 -518 763 0 7 132 10 390 10 l389 0 -65 -101 c-49 -76 -64 -106 -57
-119 13 -27 737 -1009 744 -1010 4 0 341 528 750 1173 408 644 749 1182 757
1195 l14 22 -1764 0 -1764 0 -404 -612z"/>
<path d="M35950 24248 c-217 -330 -401 -611 -409 -623 -13 -21 14 -63 522
-803 295 -429 538 -785 539 -790 4 -11 -191 -282 -206 -288 -6 -2 -156 -3
-333 -2 l-321 3 130 210 c71 116 132 215 134 222 5 10 -637 1016 -670 1051
-10 10 -179 -246 -859 -1307 -466 -726 -847 -1323 -847 -1326 0 -3 773 -4
1717 -3 l1717 3 473 715 c259 393 480 729 489 746 l17 32 -542 788 c-299 433
-545 793 -548 801 -4 11 65 13 387 13 l392 0 -14 -22 c-8 -13 -38 -60 -67
-105 l-52 -82 377 -511 c309 -420 379 -509 389 -498 15 15 1505 2365 1505
2373 0 3 -793 5 -1762 4 l-1763 0 -395 -601z"/>
<path d="M19220 19450 l-380 -570 8595 0 8595 0 380 570 380 570 -8595 0
-8595 0 -380 -570z"/>
</g>
</svg>
