<?xml version="1.0" standalone="no"?>
<!DOCTYPE svg PUBLIC "-//W3C//DTD SVG 20010904//EN"
 "http://www.w3.org/TR/2001/REC-SVG-20010904/DTD/svg10.dtd">
<svg version="1.0" xmlns="http://www.w3.org/2000/svg"
 width="4500.000000pt" height="4500.000000pt" viewBox="0 0 4500.000000 4500.000000"
 preserveAspectRatio="xMidYMid meet">

<g transform="translate(0.000000,4500.000000) scale(0.100000,-0.100000)"
fill="#000000" stroke="none">
<path d="M0 22500 l0 -22500 22500 0 22500 0 0 22500 0 22500 -22500 0 -22500
0 0 -22500z m28568 12141 c-7 -19 -5163 -7701 -5169 -7701 -12 0 -1874 2465
-1873 2480 0 8 334 514 742 1123 408 610 742 1110 742 1113 0 2 -998 3 -2217
2 l-2216 -3 -233 -355 c-128 -195 -230 -359 -226 -365 3 -5 917 -1333 2030
-2949 1112 -1617 2024 -2943 2025 -2947 1 -5 -722 -1106 -1608 -2449 l-1610
-2440 -5827 0 -5828 0 153 233 c3270 4976 5241 7967 5247 7960 28 -31 1873
-2590 1873 -2598 0 -5 -387 -591 -859 -1300 -473 -710 -864 -1296 -868 -1302
-6 -10 431 -13 2171 -13 l2178 0 615 846 c338 466 614 850 613 855 -2 5 -905
1321 -2007 2926 -1103 1605 -2005 2923 -2006 2928 -1 6 585 900 1301 1988
l1302 1977 5779 0 c3419 0 5778 -4 5776 -9z m3154 -3 c-5 -7 -3766 -5474
-8357 -12148 l-8346 -12135 -710 -3 -710 -2 38 53 c21 30 3778 5497 8348
12150 l8310 12096 719 1 c574 0 716 -3 708 -12z m4938 -9784 c558 -4 1020 -9
1026 -13 6 -3 -2010 -3016 -4850 -7248 l-4861 -7242 -1325 -1 -1325 0 3 73
c47 1038 360 8422 358 8425 -3 2 -242 -352 -533 -785 -290 -434 -1570 -2345
-2843 -4246 l-2314 -3457 -1306 1 c-718 1 -1515 5 -1773 8 l-467 6 4831 7230
c2657 3977 4834 7233 4838 7237 5 6 2373 -10 2377 -16 1 0 -63 -1999 -142
-4441 -79 -2442 -143 -4458 -143 -4480 -1 -37 255 344 3000 4464 l3001 4504
716 -6 c394 -4 1174 -10 1732 -13z"/>
</g>
</svg>
