<?xml version="1.0" standalone="no"?>
<!DOCTYPE svg PUBLIC "-//W3C//DTD SVG 20010904//EN"
 "http://www.w3.org/TR/2001/REC-SVG-20010904/DTD/svg10.dtd">
<svg version="1.0" xmlns="http://www.w3.org/2000/svg"
 width="4500.000000pt" height="4500.000000pt" viewBox="0 0 4500.000000 4500.000000"
 preserveAspectRatio="xMidYMid meet">

<g transform="translate(0.000000,4500.000000) scale(0.100000,-0.100000)"
fill="#000000" stroke="none">
<path d="M15711 32674 c-716 -1087 -1303 -1980 -1304 -1984 -1 -3 902 -1322
2006 -2930 1104 -1607 2009 -2926 2010 -2930 1 -3 -275 -387 -613 -853 l-615
-847 -2178 0 c-1740 0 -2177 3 -2171 13 4 6 395 592 868 1302 472 709 859
1295 859 1301 0 6 -422 594 -938 1307 -727 1004 -942 1294 -950 1285 -7 -7
-1217 -1847 -2690 -4088 -1473 -2241 -2682 -4081 -2688 -4087 -8 -10 1158 -13
5820 -13 l5829 0 1609 2438 c884 1340 1608 2442 1608 2447 0 6 -912 1335
-2028 2955 -1115 1620 -2028 2950 -2028 2955 0 10 435 678 457 703 9 9 462 12
2224 10 l2213 -3 -746 -1114 c-410 -613 -745 -1119 -745 -1123 0 -14 1873
-2479 1881 -2476 8 3 5169 7693 5169 7702 0 4 -2600 6 -5779 6 l-5779 0 -1301
-1976z"/>
<path d="M22005 22583 c-4559 -6636 -8316 -12104 -8348 -12150 l-58 -83 709 0
708 0 8280 12037 c4553 6621 8314 12088 8357 12150 l77 113 -717 0 -718 0
-8290 -12067z"/>
<path d="M31211 20369 c-1651 -2477 -3001 -4499 -3001 -4493 0 29 279 8761
283 8850 l5 102 -727 6 c-399 3 -933 9 -1187 12 l-461 6 -4837 -7238 -4837
-7239 468 -6 c257 -3 1056 -7 1774 -8 l1305 -1 2834 4233 c1558 2327 2839
4239 2847 4247 13 13 14 1 8 -95 -3 -60 -84 -1944 -180 -4185 -96 -2241 -176
-4105 -177 -4142 l-4 -68 1326 0 1325 1 4861 7242 c2914 4342 4857 7244 4850
7248 -6 4 -468 9 -1026 13 -558 3 -1338 9 -1732 13 l-717 6 -3000 -4504z"/>
</g>
</svg>
